<?xml version="1.0" encoding="UTF-8" standalone="no"?>
<!DOCTYPE svg PUBLIC "-//W3C//DTD SVG 1.1//EN"
 "http://www.w3.org/Graphics/SVG/1.1/DTD/svg11.dtd">
<!-- Generated by graphviz version 2.40.1 (20161225.0304)
 -->
<!-- Title: dependencies Pages: 1 -->
<svg width="5750pt" height="284pt"
 viewBox="0.00 0.00 5750.00 284.00" xmlns="http://www.w3.org/2000/svg" xmlns:xlink="http://www.w3.org/1999/xlink">
<g id="graph0" class="graph" transform="scale(1 1) rotate(0) translate(4 280)">
<title>dependencies</title>
<polygon fill="#ffffff" stroke="transparent" points="-4,4 -4,-280 5746,-280 5746,4 -4,4"/>
<text text-anchor="start" x="2850.0091" y="-42.4" font-family="sans-serif" font-weight="bold" font-size="14.00" fill="#000000">Legend</text>
<polygon fill="#ffffb3" stroke="transparent" points="2637,-10 2637,-30 2657,-30 2657,-10 2637,-10"/>
<text text-anchor="start" x="2660.629" y="-15.4" font-family="sans-serif" font-size="14.00" fill="#000000"> &#160;Declarations</text>
<polygon fill="#8dd3c7" stroke="transparent" points="2750,-10 2750,-30 2770,-30 2770,-10 2750,-10"/>
<text text-anchor="start" x="2773.7251" y="-15.4" font-family="sans-serif" font-size="14.00" fill="#000000"> &#160;Module</text>
<polygon fill="#80b1d3" stroke="transparent" points="2836,-10 2836,-30 2856,-30 2856,-10 2836,-10"/>
<text text-anchor="start" x="2859.7812" y="-15.4" font-family="sans-serif" font-size="14.00" fill="#000000"> &#160;Bootstrap</text>
<polygon fill="#fdb462" stroke="transparent" points="2933,-10 2933,-30 2953,-30 2953,-10 2933,-10"/>
<text text-anchor="start" x="2956.6732" y="-15.4" font-family="sans-serif" font-size="14.00" fill="#000000"> &#160;Providers</text>
<polygon fill="#fb8072" stroke="transparent" points="3029,-10 3029,-30 3049,-30 3049,-10 3029,-10"/>
<text text-anchor="start" x="3052.7258" y="-15.4" font-family="sans-serif" font-size="14.00" fill="#000000"> &#160;Exports</text>
<g id="clust1" class="cluster">
<title>cluster_AppModule</title>
<polygon fill="none" stroke="#000000" stroke-dasharray="1,5" points="8,-70 8,-268 5734,-268 5734,-70 8,-70"/>
</g>
<g id="clust2" class="cluster">
<title>cluster_AppModule_declarations</title>
<polygon fill="none" stroke="#000000" points="1336,-78 1336,-130 5726,-130 5726,-78 1336,-78"/>
</g>
<g id="clust30" class="cluster">
<title>cluster_AppModule_imports</title>
<polygon fill="none" stroke="#000000" points="1184,-78 1184,-130 1328,-130 1328,-78 1184,-78"/>
</g>
<g id="clust32" class="cluster">
<title>cluster_AppModule_bootstrap</title>
<polygon fill="none" stroke="#000000" points="2884,-208 2884,-260 3008,-260 3008,-208 2884,-208"/>
</g>
<g id="clust33" class="cluster">
<title>cluster_AppModule_providers</title>
<polygon fill="none" stroke="#000000" points="16,-78 16,-130 1176,-130 1176,-78 16,-78"/>
</g>
<!-- AppComponent -->
<g id="node1" class="node">
<title>AppComponent</title>
<polygon fill="#ffffb3" stroke="#000000" points="5717.9399,-122 5612.0601,-122 5612.0601,-86 5717.9399,-86 5717.9399,-122"/>
<text text-anchor="middle" x="5665" y="-99.8" font-family="Times,serif" font-size="14.00" fill="#000000">AppComponent</text>
</g>
<!-- AppModule -->
<g id="node28" class="node">
<title>AppModule</title>
<polygon fill="#8dd3c7" stroke="#000000" points="2987.6571,-187 2984.6571,-191 2963.6571,-191 2960.6571,-187 2904.3429,-187 2904.3429,-151 2987.6571,-151 2987.6571,-187"/>
<text text-anchor="middle" x="2946" y="-164.8" font-family="Times,serif" font-size="14.00" fill="#000000">AppModule</text>
</g>
<!-- AppComponent&#45;&gt;AppModule -->
<g id="edge1" class="edge">
<title>AppComponent&#45;&gt;AppModule</title>
<path fill="none" stroke="#000000" d="M5665,-122.3802C5665,-146.2785 5665,-185 5665,-185 5665,-185 2997.8917,-185 2997.8917,-185"/>
<polygon fill="#000000" stroke="#000000" points="2997.8918,-181.5001 2987.8917,-185 2997.8917,-188.5001 2997.8918,-181.5001"/>
</g>
<!-- NavComponent -->
<g id="node2" class="node">
<title>NavComponent</title>
<polygon fill="#ffffb3" stroke="#000000" points="5594.1542,-122 5489.8458,-122 5489.8458,-86 5594.1542,-86 5594.1542,-122"/>
<text text-anchor="middle" x="5542" y="-99.8" font-family="Times,serif" font-size="14.00" fill="#000000">NavComponent</text>
</g>
<!-- NavComponent&#45;&gt;AppModule -->
<g id="edge2" class="edge">
<title>NavComponent&#45;&gt;AppModule</title>
<path fill="none" stroke="#000000" d="M5542,-122.3228C5542,-145.6602 5542,-183 5542,-183 5542,-183 2997.8284,-183 2997.8284,-183"/>
<polygon fill="#000000" stroke="#000000" points="2997.8285,-179.5001 2987.8284,-183 2997.8284,-186.5001 2997.8285,-179.5001"/>
</g>
<!-- LoginComponent -->
<g id="node3" class="node">
<title>LoginComponent</title>
<polygon fill="#ffffb3" stroke="#000000" points="5471.2758,-122 5356.7242,-122 5356.7242,-86 5471.2758,-86 5471.2758,-122"/>
<text text-anchor="middle" x="5414" y="-99.8" font-family="Times,serif" font-size="14.00" fill="#000000">LoginComponent</text>
</g>
<!-- LoginComponent&#45;&gt;AppModule -->
<g id="edge3" class="edge">
<title>LoginComponent&#45;&gt;AppModule</title>
<path fill="none" stroke="#000000" d="M5414,-122.2479C5414,-145.0179 5414,-181 5414,-181 5414,-181 2997.8012,-181 2997.8012,-181"/>
<polygon fill="#000000" stroke="#000000" points="2997.8013,-177.5001 2987.8012,-181 2997.8012,-184.5001 2997.8013,-177.5001"/>
</g>
<!-- AdopterHomeComponent -->
<g id="node4" class="node">
<title>AdopterHomeComponent</title>
<polygon fill="#ffffb3" stroke="#000000" points="5338.9171,-122 5177.0829,-122 5177.0829,-86 5338.9171,-86 5338.9171,-122"/>
<text text-anchor="middle" x="5258" y="-99.8" font-family="Times,serif" font-size="14.00" fill="#000000">AdopterHomeComponent</text>
</g>
<!-- AdopterHomeComponent&#45;&gt;AppModule -->
<g id="edge4" class="edge">
<title>AdopterHomeComponent&#45;&gt;AppModule</title>
<path fill="none" stroke="#000000" d="M5258,-122.1554C5258,-144.3519 5258,-179 5258,-179 5258,-179 2998.1027,-179 2998.1027,-179"/>
<polygon fill="#000000" stroke="#000000" points="2998.1027,-175.5001 2988.1027,-179 2998.1027,-182.5001 2998.1027,-175.5001"/>
</g>
<!-- AdminHomeComponent -->
<g id="node5" class="node">
<title>AdminHomeComponent</title>
<polygon fill="#ffffb3" stroke="#000000" points="5159.4326,-122 5004.5674,-122 5004.5674,-86 5159.4326,-86 5159.4326,-122"/>
<text text-anchor="middle" x="5082" y="-99.8" font-family="Times,serif" font-size="14.00" fill="#000000">AdminHomeComponent</text>
</g>
<!-- AdminHomeComponent&#45;&gt;AppModule -->
<g id="edge5" class="edge">
<title>AdminHomeComponent&#45;&gt;AppModule</title>
<path fill="none" stroke="#000000" d="M5082,-122.0449C5082,-143.6623 5082,-177 5082,-177 5082,-177 2997.7097,-177 2997.7097,-177"/>
<polygon fill="#000000" stroke="#000000" points="2997.7097,-173.5001 2987.7097,-177 2997.7096,-180.5001 2997.7097,-173.5001"/>
</g>
<!-- HomepageComponent -->
<g id="node6" class="node">
<title>HomepageComponent</title>
<polygon fill="#ffffb3" stroke="#000000" points="4986.9734,-122 4845.0266,-122 4845.0266,-86 4986.9734,-86 4986.9734,-122"/>
<text text-anchor="middle" x="4916" y="-99.8" font-family="Times,serif" font-size="14.00" fill="#000000">HomepageComponent</text>
</g>
<!-- HomepageComponent&#45;&gt;AppModule -->
<g id="edge6" class="edge">
<title>HomepageComponent&#45;&gt;AppModule</title>
<path fill="none" stroke="#000000" d="M4916,-122.2843C4916,-143.3211 4916,-175 4916,-175 4916,-175 2998.0576,-175 2998.0576,-175"/>
<polygon fill="#000000" stroke="#000000" points="2998.0577,-171.5001 2988.0576,-175 2998.0576,-178.5001 2998.0577,-171.5001"/>
</g>
<!-- CommunitySectionComponent -->
<g id="node7" class="node">
<title>CommunitySectionComponent</title>
<polygon fill="#ffffb3" stroke="#000000" points="4827.2245,-122 4636.7755,-122 4636.7755,-86 4827.2245,-86 4827.2245,-122"/>
<text text-anchor="middle" x="4732" y="-99.8" font-family="Times,serif" font-size="14.00" fill="#000000">CommunitySectionComponent</text>
</g>
<!-- CommunitySectionComponent&#45;&gt;AppModule -->
<g id="edge7" class="edge">
<title>CommunitySectionComponent&#45;&gt;AppModule</title>
<path fill="none" stroke="#000000" d="M4732,-122.1289C4732,-142.5724 4732,-173 4732,-173 4732,-173 2997.9518,-173 2997.9518,-173"/>
<polygon fill="#000000" stroke="#000000" points="2997.9518,-169.5001 2987.9518,-173 2997.9518,-176.5001 2997.9518,-169.5001"/>
</g>
<!-- PetSectionComponent -->
<g id="node8" class="node">
<title>PetSectionComponent</title>
<polygon fill="#ffffb3" stroke="#000000" points="4618.7134,-122 4477.2866,-122 4477.2866,-86 4618.7134,-86 4618.7134,-122"/>
<text text-anchor="middle" x="4548" y="-99.8" font-family="Times,serif" font-size="14.00" fill="#000000">PetSectionComponent</text>
</g>
<!-- PetSectionComponent&#45;&gt;AppModule -->
<g id="edge8" class="edge">
<title>PetSectionComponent&#45;&gt;AppModule</title>
<path fill="none" stroke="#000000" d="M4548,-122.308C4548,-142.1455 4548,-171 4548,-171 4548,-171 2998.0262,-171 2998.0262,-171"/>
<polygon fill="#000000" stroke="#000000" points="2998.0262,-167.5001 2988.0262,-171 2998.0261,-174.5001 2998.0262,-167.5001"/>
</g>
<!-- RegisterComponent -->
<g id="node9" class="node">
<title>RegisterComponent</title>
<polygon fill="#ffffb3" stroke="#000000" points="4458.9846,-122 4331.0154,-122 4331.0154,-86 4458.9846,-86 4458.9846,-122"/>
<text text-anchor="middle" x="4395" y="-99.8" font-family="Times,serif" font-size="14.00" fill="#000000">RegisterComponent</text>
</g>
<!-- RegisterComponent&#45;&gt;AppModule -->
<g id="edge9" class="edge">
<title>RegisterComponent&#45;&gt;AppModule</title>
<path fill="none" stroke="#000000" d="M4395,-122.1686C4395,-141.0898 4395,-168 4395,-168 4395,-168 2997.8031,-168 2997.8031,-168"/>
<polygon fill="#000000" stroke="#000000" points="2997.8031,-164.5001 2987.8031,-168 2997.803,-171.5001 2997.8031,-164.5001"/>
</g>
<!-- BrowsePetsComponent -->
<g id="node10" class="node">
<title>BrowsePetsComponent</title>
<polygon fill="#ffffb3" stroke="#000000" points="4312.9284,-122 4165.0716,-122 4165.0716,-86 4312.9284,-86 4312.9284,-122"/>
<text text-anchor="middle" x="4239" y="-99.8" font-family="Times,serif" font-size="14.00" fill="#000000">BrowsePetsComponent</text>
</g>
<!-- BrowsePetsComponent&#45;&gt;AppModule -->
<g id="edge10" class="edge">
<title>BrowsePetsComponent&#45;&gt;AppModule</title>
<path fill="none" stroke="#000000" d="M4239,-122.2667C4239,-140.5552 4239,-166 4239,-166 4239,-166 2997.9199,-166 2997.9199,-166"/>
<polygon fill="#000000" stroke="#000000" points="2997.92,-162.5001 2987.9199,-166 2997.9199,-169.5001 2997.92,-162.5001"/>
</g>
<!-- DetailPetComponent -->
<g id="node11" class="node">
<title>DetailPetComponent</title>
<polygon fill="#ffffb3" stroke="#000000" points="4147.9285,-122 4014.0715,-122 4014.0715,-86 4147.9285,-86 4147.9285,-122"/>
<text text-anchor="middle" x="4081" y="-99.8" font-family="Times,serif" font-size="14.00" fill="#000000">DetailPetComponent</text>
</g>
<!-- DetailPetComponent&#45;&gt;AppModule -->
<g id="edge11" class="edge">
<title>DetailPetComponent&#45;&gt;AppModule</title>
<path fill="none" stroke="#000000" d="M4081,-122.002C4081,-139.6754 4081,-164 4081,-164 4081,-164 2997.7413,-164 2997.7413,-164"/>
<polygon fill="#000000" stroke="#000000" points="2997.7414,-160.5001 2987.7413,-164 2997.7413,-167.5001 2997.7414,-160.5001"/>
</g>
<!-- ContactCardComponent -->
<g id="node12" class="node">
<title>ContactCardComponent</title>
<polygon fill="#ffffb3" stroke="#000000" points="3996.0912,-122 3843.9088,-122 3843.9088,-86 3996.0912,-86 3996.0912,-122"/>
<text text-anchor="middle" x="3920" y="-99.8" font-family="Times,serif" font-size="14.00" fill="#000000">ContactCardComponent</text>
</g>
<!-- ContactCardComponent&#45;&gt;AppModule -->
<g id="edge12" class="edge">
<title>ContactCardComponent&#45;&gt;AppModule</title>
<path fill="none" stroke="#000000" d="M3920,-122.0336C3920,-139.0597 3920,-162 3920,-162 3920,-162 2997.8516,-162 2997.8516,-162"/>
<polygon fill="#000000" stroke="#000000" points="2997.8516,-158.5001 2987.8516,-162 2997.8515,-165.5001 2997.8516,-158.5001"/>
</g>
<!-- AdopterNavComponent -->
<g id="node13" class="node">
<title>AdopterNavComponent</title>
<polygon fill="#ffffb3" stroke="#000000" points="3826.0267,-122 3675.9733,-122 3675.9733,-86 3826.0267,-86 3826.0267,-122"/>
<text text-anchor="middle" x="3751" y="-99.8" font-family="Times,serif" font-size="14.00" fill="#000000">AdopterNavComponent</text>
</g>
<!-- AdopterNavComponent&#45;&gt;AppModule -->
<g id="edge13" class="edge">
<title>AdopterNavComponent&#45;&gt;AppModule</title>
<path fill="none" stroke="#000000" d="M3751,-122.027C3751,-138.3976 3751,-160 3751,-160 3751,-160 2997.8656,-160 2997.8656,-160"/>
<polygon fill="#000000" stroke="#000000" points="2997.8656,-156.5001 2987.8656,-160 2997.8656,-163.5001 2997.8656,-156.5001"/>
</g>
<!-- AdopterProfileComponent -->
<g id="node14" class="node">
<title>AdopterProfileComponent</title>
<polygon fill="#ffffb3" stroke="#000000" points="3657.8047,-122 3492.1953,-122 3492.1953,-86 3657.8047,-86 3657.8047,-122"/>
<text text-anchor="middle" x="3575" y="-99.8" font-family="Times,serif" font-size="14.00" fill="#000000">AdopterProfileComponent</text>
</g>
<!-- AdopterProfileComponent&#45;&gt;AppModule -->
<g id="edge14" class="edge">
<title>AdopterProfileComponent&#45;&gt;AppModule</title>
<path fill="none" stroke="#000000" d="M3575,-122.2819C3575,-137.9478 3575,-158 3575,-158 3575,-158 2997.7576,-158 2997.7576,-158"/>
<polygon fill="#000000" stroke="#000000" points="2997.7576,-154.5001 2987.7576,-158 2997.7575,-161.5001 2997.7576,-154.5001"/>
</g>
<!-- MessageListComponent -->
<g id="node15" class="node">
<title>MessageListComponent</title>
<polygon fill="#ffffb3" stroke="#000000" points="3474.0884,-122 3321.9116,-122 3321.9116,-86 3474.0884,-86 3474.0884,-122"/>
<text text-anchor="middle" x="3398" y="-99.8" font-family="Times,serif" font-size="14.00" fill="#000000">MessageListComponent</text>
</g>
<!-- MessageListComponent&#45;&gt;AppModule -->
<g id="edge15" class="edge">
<title>MessageListComponent&#45;&gt;AppModule</title>
<path fill="none" stroke="#000000" d="M3398,-122.1871C3398,-137.1824 3398,-156 3398,-156 3398,-156 2997.7129,-156 2997.7129,-156"/>
<polygon fill="#000000" stroke="#000000" points="2997.7129,-152.5001 2987.7129,-156 2997.7129,-159.5001 2997.7129,-152.5001"/>
</g>
<!-- MessageDetailComponent -->
<g id="node16" class="node">
<title>MessageDetailComponent</title>
<polygon fill="#ffffb3" stroke="#000000" points="3304.0183,-122 3139.9817,-122 3139.9817,-86 3304.0183,-86 3304.0183,-122"/>
<text text-anchor="middle" x="3222" y="-99.8" font-family="Times,serif" font-size="14.00" fill="#000000">MessageDetailComponent</text>
</g>
<!-- MessageDetailComponent&#45;&gt;AppModule -->
<g id="edge16" class="edge">
<title>MessageDetailComponent&#45;&gt;AppModule</title>
<path fill="none" stroke="#000000" d="M3222,-122.0511C3222,-136.373 3222,-154 3222,-154 3222,-154 2997.9185,-154 2997.9185,-154"/>
<polygon fill="#000000" stroke="#000000" points="2997.9185,-150.5001 2987.9185,-154 2997.9184,-157.5001 2997.9185,-150.5001"/>
</g>
<!-- BookmarkSaveComponent -->
<g id="node17" class="node">
<title>BookmarkSaveComponent</title>
<polygon fill="#ffffb3" stroke="#000000" points="3121.647,-122 2954.353,-122 2954.353,-86 3121.647,-86 3121.647,-122"/>
<text text-anchor="middle" x="3038" y="-99.8" font-family="Times,serif" font-size="14.00" fill="#000000">BookmarkSaveComponent</text>
</g>
<!-- BookmarkSaveComponent&#45;&gt;AppModule -->
<g id="edge17" class="edge">
<title>BookmarkSaveComponent&#45;&gt;AppModule</title>
<path fill="none" stroke="#000000" d="M2971.0025,-122.1061C2971.0025,-122.1061 2971.0025,-140.991 2971.0025,-140.991"/>
<polygon fill="#000000" stroke="#000000" points="2967.5025,-140.9909 2971.0025,-150.991 2974.5025,-140.991 2967.5025,-140.9909"/>
</g>
<!-- BookmarkListComponent -->
<g id="node18" class="node">
<title>BookmarkListComponent</title>
<polygon fill="#ffffb3" stroke="#000000" points="2936.2133,-122 2773.7867,-122 2773.7867,-86 2936.2133,-86 2936.2133,-122"/>
<text text-anchor="middle" x="2855" y="-99.8" font-family="Times,serif" font-size="14.00" fill="#000000">BookmarkListComponent</text>
</g>
<!-- BookmarkListComponent&#45;&gt;AppModule -->
<g id="edge18" class="edge">
<title>BookmarkListComponent&#45;&gt;AppModule</title>
<path fill="none" stroke="#000000" d="M2920.1392,-122.1061C2920.1392,-122.1061 2920.1392,-140.991 2920.1392,-140.991"/>
<polygon fill="#000000" stroke="#000000" points="2916.6393,-140.9909 2920.1392,-150.991 2923.6393,-140.991 2916.6393,-140.9909"/>
</g>
<!-- OwnerHomeComponent -->
<g id="node19" class="node">
<title>OwnerHomeComponent</title>
<polygon fill="#ffffb3" stroke="#000000" points="2755.633,-122 2602.367,-122 2602.367,-86 2755.633,-86 2755.633,-122"/>
<text text-anchor="middle" x="2679" y="-99.8" font-family="Times,serif" font-size="14.00" fill="#000000">OwnerHomeComponent</text>
</g>
<!-- OwnerHomeComponent&#45;&gt;AppModule -->
<g id="edge19" class="edge">
<title>OwnerHomeComponent&#45;&gt;AppModule</title>
<path fill="none" stroke="#000000" d="M2679,-122.0511C2679,-136.373 2679,-154 2679,-154 2679,-154 2894.2813,-154 2894.2813,-154"/>
<polygon fill="#000000" stroke="#000000" points="2894.2813,-157.5001 2904.2813,-154 2894.2812,-150.5001 2894.2813,-157.5001"/>
</g>
<!-- OwnerNavComponent -->
<g id="node20" class="node">
<title>OwnerNavComponent</title>
<polygon fill="#ffffb3" stroke="#000000" points="2584.2422,-122 2441.7578,-122 2441.7578,-86 2584.2422,-86 2584.2422,-122"/>
<text text-anchor="middle" x="2513" y="-99.8" font-family="Times,serif" font-size="14.00" fill="#000000">OwnerNavComponent</text>
</g>
<!-- OwnerNavComponent&#45;&gt;AppModule -->
<g id="edge20" class="edge">
<title>OwnerNavComponent&#45;&gt;AppModule</title>
<path fill="none" stroke="#000000" d="M2513,-122.1871C2513,-137.1824 2513,-156 2513,-156 2513,-156 2894.0887,-156 2894.0887,-156"/>
<polygon fill="#000000" stroke="#000000" points="2894.0887,-159.5001 2904.0887,-156 2894.0887,-152.5001 2894.0887,-159.5001"/>
</g>
<!-- CommunityHomeComponent -->
<g id="node21" class="node">
<title>CommunityHomeComponent</title>
<polygon fill="#ffffb3" stroke="#000000" points="2423.4437,-122 2240.5563,-122 2240.5563,-86 2423.4437,-86 2423.4437,-122"/>
<text text-anchor="middle" x="2332" y="-99.8" font-family="Times,serif" font-size="14.00" fill="#000000">CommunityHomeComponent</text>
</g>
<!-- CommunityHomeComponent&#45;&gt;AppModule -->
<g id="edge21" class="edge">
<title>CommunityHomeComponent&#45;&gt;AppModule</title>
<path fill="none" stroke="#000000" d="M2332,-122.2819C2332,-137.9478 2332,-158 2332,-158 2332,-158 2894.28,-158 2894.28,-158"/>
<polygon fill="#000000" stroke="#000000" points="2894.28,-161.5001 2904.28,-158 2894.28,-154.5001 2894.28,-161.5001"/>
</g>
<!-- OwnerPetListComponent -->
<g id="node22" class="node">
<title>OwnerPetListComponent</title>
<polygon fill="#ffffb3" stroke="#000000" points="2222.587,-122 2063.413,-122 2063.413,-86 2222.587,-86 2222.587,-122"/>
<text text-anchor="middle" x="2143" y="-99.8" font-family="Times,serif" font-size="14.00" fill="#000000">OwnerPetListComponent</text>
</g>
<!-- OwnerPetListComponent&#45;&gt;AppModule -->
<g id="edge22" class="edge">
<title>OwnerPetListComponent&#45;&gt;AppModule</title>
<path fill="none" stroke="#000000" d="M2143,-122.027C2143,-138.3976 2143,-160 2143,-160 2143,-160 2894.2384,-160 2894.2384,-160"/>
<polygon fill="#000000" stroke="#000000" points="2894.2384,-163.5001 2904.2384,-160 2894.2384,-156.5001 2894.2384,-163.5001"/>
</g>
<!-- ArticleComponent -->
<g id="node23" class="node">
<title>ArticleComponent</title>
<polygon fill="#ffffb3" stroke="#000000" points="2045.2008,-122 1924.7992,-122 1924.7992,-86 2045.2008,-86 2045.2008,-122"/>
<text text-anchor="middle" x="1985" y="-99.8" font-family="Times,serif" font-size="14.00" fill="#000000">ArticleComponent</text>
</g>
<!-- ArticleComponent&#45;&gt;AppModule -->
<g id="edge23" class="edge">
<title>ArticleComponent&#45;&gt;AppModule</title>
<path fill="none" stroke="#000000" d="M1985,-122.0336C1985,-139.0597 1985,-162 1985,-162 1985,-162 2894.0891,-162 2894.0891,-162"/>
<polygon fill="#000000" stroke="#000000" points="2894.0891,-165.5001 2904.0891,-162 2894.0891,-158.5001 2894.0891,-165.5001"/>
</g>
<!-- Article2Component -->
<g id="node24" class="node">
<title>Article2Component</title>
<polygon fill="#ffffb3" stroke="#000000" points="1906.7008,-122 1779.2992,-122 1779.2992,-86 1906.7008,-86 1906.7008,-122"/>
<text text-anchor="middle" x="1843" y="-99.8" font-family="Times,serif" font-size="14.00" fill="#000000">Article2Component</text>
</g>
<!-- Article2Component&#45;&gt;AppModule -->
<g id="edge24" class="edge">
<title>Article2Component&#45;&gt;AppModule</title>
<path fill="none" stroke="#000000" d="M1843,-122.002C1843,-139.6754 1843,-164 1843,-164 1843,-164 2894.108,-164 2894.108,-164"/>
<polygon fill="#000000" stroke="#000000" points="2894.108,-167.5001 2904.108,-164 2894.1079,-160.5001 2894.108,-167.5001"/>
</g>
<!-- Article3Component -->
<g id="node25" class="node">
<title>Article3Component</title>
<polygon fill="#ffffb3" stroke="#000000" points="1761.7008,-122 1634.2992,-122 1634.2992,-86 1761.7008,-86 1761.7008,-122"/>
<text text-anchor="middle" x="1698" y="-99.8" font-family="Times,serif" font-size="14.00" fill="#000000">Article3Component</text>
</g>
<!-- Article3Component&#45;&gt;AppModule -->
<g id="edge25" class="edge">
<title>Article3Component&#45;&gt;AppModule</title>
<path fill="none" stroke="#000000" d="M1698,-122.2667C1698,-140.5552 1698,-166 1698,-166 1698,-166 2894.1199,-166 2894.1199,-166"/>
<polygon fill="#000000" stroke="#000000" points="2894.12,-169.5001 2904.1199,-166 2894.1199,-162.5001 2894.12,-169.5001"/>
</g>
<!-- Article4Component -->
<g id="node26" class="node">
<title>Article4Component</title>
<polygon fill="#ffffb3" stroke="#000000" points="1616.7008,-122 1489.2992,-122 1489.2992,-86 1616.7008,-86 1616.7008,-122"/>
<text text-anchor="middle" x="1553" y="-99.8" font-family="Times,serif" font-size="14.00" fill="#000000">Article4Component</text>
</g>
<!-- Article4Component&#45;&gt;AppModule -->
<g id="edge26" class="edge">
<title>Article4Component&#45;&gt;AppModule</title>
<path fill="none" stroke="#000000" d="M1553,-122.1686C1553,-141.0898 1553,-168 1553,-168 1553,-168 2894.3103,-168 2894.3103,-168"/>
<polygon fill="#000000" stroke="#000000" points="2894.3103,-171.5001 2904.3103,-168 2894.3102,-164.5001 2894.3103,-171.5001"/>
</g>
<!-- Article5Component -->
<g id="node27" class="node">
<title>Article5Component</title>
<polygon fill="#ffffb3" stroke="#000000" points="1471.7008,-122 1344.2992,-122 1344.2992,-86 1471.7008,-86 1471.7008,-122"/>
<text text-anchor="middle" x="1408" y="-99.8" font-family="Times,serif" font-size="14.00" fill="#000000">Article5Component</text>
</g>
<!-- Article5Component&#45;&gt;AppModule -->
<g id="edge27" class="edge">
<title>Article5Component&#45;&gt;AppModule</title>
<path fill="none" stroke="#000000" d="M1408,-122.308C1408,-142.1455 1408,-171 1408,-171 1408,-171 2894.0646,-171 2894.0646,-171"/>
<polygon fill="#000000" stroke="#000000" points="2894.0646,-174.5001 2904.0646,-171 2894.0645,-167.5001 2894.0646,-174.5001"/>
</g>
<!-- AppComponent  -->
<g id="node30" class="node">
<title>AppComponent </title>
<polygon fill="#80b1d3" stroke="#000000" points="3000.439,-252 2891.561,-252 2891.561,-216 3000.439,-216 3000.439,-252"/>
<text text-anchor="middle" x="2946" y="-229.8" font-family="Times,serif" font-size="14.00" fill="#000000">AppComponent </text>
</g>
<!-- AppModule&#45;&gt;AppComponent  -->
<g id="edge29" class="edge">
<title>AppModule&#45;&gt;AppComponent </title>
<path fill="none" stroke="#000000" stroke-dasharray="1,5" d="M2946,-187.1061C2946,-187.1061 2946,-205.991 2946,-205.991"/>
<polygon fill="#000000" stroke="#000000" points="2942.5001,-205.9909 2946,-215.991 2949.5001,-205.991 2942.5001,-205.9909"/>
</g>
<!-- AppRoutingModule -->
<g id="node29" class="node">
<title>AppRoutingModule</title>
<polygon fill="#8dd3c7" stroke="#000000" points="1320.2744,-122 1317.2744,-126 1296.2744,-126 1293.2744,-122 1191.7256,-122 1191.7256,-86 1320.2744,-86 1320.2744,-122"/>
<text text-anchor="middle" x="1256" y="-99.8" font-family="Times,serif" font-size="14.00" fill="#000000">AppRoutingModule</text>
</g>
<!-- AppRoutingModule&#45;&gt;AppModule -->
<g id="edge28" class="edge">
<title>AppRoutingModule&#45;&gt;AppModule</title>
<path fill="none" stroke="#000000" d="M1256,-122.1289C1256,-142.5724 1256,-173 1256,-173 1256,-173 2894.2245,-173 2894.2245,-173"/>
<polygon fill="#000000" stroke="#000000" points="2894.2245,-176.5001 2904.2245,-173 2894.2245,-169.5001 2894.2245,-176.5001"/>
</g>
<!-- HomepageService -->
<g id="node31" class="node">
<title>HomepageService</title>
<ellipse fill="#fdb462" stroke="#000000" cx="1086" cy="-104" rx="81.6423" ry="18"/>
<text text-anchor="middle" x="1086" y="-99.8" font-family="Times,serif" font-size="14.00" fill="#000000">HomepageService</text>
</g>
<!-- HomepageService&#45;&gt;AppModule -->
<g id="edge30" class="edge">
<title>HomepageService&#45;&gt;AppModule</title>
<path fill="none" stroke="#000000" d="M1086,-122.2843C1086,-143.3211 1086,-175 1086,-175 1086,-175 2894.1011,-175 2894.1011,-175"/>
<polygon fill="#000000" stroke="#000000" points="2894.1011,-178.5001 2904.1011,-175 2894.101,-171.5001 2894.1011,-178.5001"/>
</g>
<!-- AdopterProfileService -->
<g id="node32" class="node">
<title>AdopterProfileService</title>
<ellipse fill="#fdb462" stroke="#000000" cx="888" cy="-104" rx="97.8286" ry="18"/>
<text text-anchor="middle" x="888" y="-99.8" font-family="Times,serif" font-size="14.00" fill="#000000">AdopterProfileService</text>
</g>
<!-- AdopterProfileService&#45;&gt;AppModule -->
<g id="edge31" class="edge">
<title>AdopterProfileService&#45;&gt;AppModule</title>
<path fill="none" stroke="#000000" d="M888,-122.0449C888,-143.6623 888,-177 888,-177 888,-177 2893.9581,-177 2893.9581,-177"/>
<polygon fill="#000000" stroke="#000000" points="2893.9581,-180.5001 2903.9581,-177 2893.9581,-173.5001 2893.9581,-180.5001"/>
</g>
<!-- PetSectionService -->
<g id="node33" class="node">
<title>PetSectionService</title>
<ellipse fill="#fdb462" stroke="#000000" cx="691" cy="-104" rx="81.0937" ry="18"/>
<text text-anchor="middle" x="691" y="-99.8" font-family="Times,serif" font-size="14.00" fill="#000000">PetSectionService</text>
</g>
<!-- PetSectionService&#45;&gt;AppModule -->
<g id="edge32" class="edge">
<title>PetSectionService&#45;&gt;AppModule</title>
<path fill="none" stroke="#000000" d="M691,-122.1554C691,-144.3519 691,-179 691,-179 691,-179 2893.9565,-179 2893.9565,-179"/>
<polygon fill="#000000" stroke="#000000" points="2893.9566,-182.5001 2903.9565,-179 2893.9565,-175.5001 2893.9566,-182.5001"/>
</g>
<!-- OwnerPetListService -->
<g id="node34" class="node">
<title>OwnerPetListService</title>
<ellipse fill="#fdb462" stroke="#000000" cx="498" cy="-104" rx="93.7514" ry="18"/>
<text text-anchor="middle" x="498" y="-99.8" font-family="Times,serif" font-size="14.00" fill="#000000">OwnerPetListService</text>
</g>
<!-- OwnerPetListService&#45;&gt;AppModule -->
<g id="edge33" class="edge">
<title>OwnerPetListService&#45;&gt;AppModule</title>
<path fill="none" stroke="#000000" d="M498,-122.2479C498,-145.0179 498,-181 498,-181 498,-181 2894.2818,-181 2894.2818,-181"/>
<polygon fill="#000000" stroke="#000000" points="2894.2819,-184.5001 2904.2818,-181 2894.2818,-177.5001 2894.2819,-184.5001"/>
</g>
<!-- DetailPetService -->
<g id="node35" class="node">
<title>DetailPetService</title>
<ellipse fill="#fdb462" stroke="#000000" cx="310" cy="-104" rx="75.8528" ry="18"/>
<text text-anchor="middle" x="310" y="-99.8" font-family="Times,serif" font-size="14.00" fill="#000000">DetailPetService</text>
</g>
<!-- DetailPetService&#45;&gt;AppModule -->
<g id="edge34" class="edge">
<title>DetailPetService&#45;&gt;AppModule</title>
<path fill="none" stroke="#000000" d="M310,-122.3228C310,-145.6602 310,-183 310,-183 310,-183 2894.329,-183 2894.329,-183"/>
<polygon fill="#000000" stroke="#000000" points="2894.3291,-186.5001 2904.329,-183 2894.329,-179.5001 2894.3291,-186.5001"/>
</g>
<!-- BookmarkListService -->
<g id="node36" class="node">
<title>BookmarkListService</title>
<ellipse fill="#fdb462" stroke="#000000" cx="120" cy="-104" rx="95.5645" ry="18"/>
<text text-anchor="middle" x="120" y="-99.8" font-family="Times,serif" font-size="14.00" fill="#000000">BookmarkListService</text>
</g>
<!-- BookmarkListService&#45;&gt;AppModule -->
<g id="edge35" class="edge">
<title>BookmarkListService&#45;&gt;AppModule</title>
<path fill="none" stroke="#000000" d="M120,-122.3802C120,-146.2785 120,-185 120,-185 120,-185 2894.1353,-185 2894.1353,-185"/>
<polygon fill="#000000" stroke="#000000" points="2894.1353,-188.5001 2904.1353,-185 2894.1353,-181.5001 2894.1353,-188.5001"/>
</g>
</g>
</svg>
